<svg xmlns="http://www.w3.org/2000/svg" version="1.1" xmlns:xlink="http://www.w3.org/1999/xlink" xmlns:svgjs="http://svgjs.dev/svgjs" width="1000" height="1000" viewBox="0 0 1000 1000"><rect width="1000" height="1000" fill="#ffffff"></rect><g transform="matrix(0.7,0,0,0.7,150.0000000000001,106.25)"><svg viewBox="0 0 320 360" data-background-color="#ffffff" preserveAspectRatio="xMidYMid meet" height="1125" width="1000" xmlns="http://www.w3.org/2000/svg" xmlns:xlink="http://www.w3.org/1999/xlink"><g id="tight-bounds" transform="matrix(1,0,0,1,0,0)"><svg viewBox="0 0 320 360" height="360" width="320"><g><svg></svg></g><g><svg viewBox="0 0 320 360" height="360" width="320"><g><path xmlns="http://www.w3.org/2000/svg" d="M20.961 227.22l3.726 4.658-1.863-6.056c-0.466-2.795-3.726 0.466-1.863 1.398M25.153 224.425c1.397 2.329 2.795 4.658 2.795 6.987 0 3.261 2.795 4.658 5.123 5.589-3.261-3.726-5.124-13.974-7.918-12.576M204.017 26.929c7.918 0 15.371-0.932 23.756 0.931 20.495 5.124 37.729 15.371 49.374 29.811l32.606 52.169c1.397 13.042 4.192 27.482 3.726 43.319 3.261 0 2.795-4.658 6.521-5.59-3.726 9.316-5.59 20.961-6.521 34.469-2.329-7.453 0-18.632 0.466-24.687-3.261 5.124-5.124 1.397-5.124-0.932 0.466-3.726-1.397-3.261-2.795-4.658-5.124-4.658-8.384-9.782-12.11-17.7 2.329-6.055 2.795-14.905-4.658-19.563-2.329-1.397-5.124-3.726-6.521-7.453-1.863-5.124-5.124-11.179-4.193-19.097 0.466-2.329-6.987 5.124-11.179 1.863-18.166-12.576-36.332-27.016-58.224-39.127-11.645 0-20.029-4.192-24.221-9.316-3.726-4.658-0.932-10.713 4.658-11.179 3.261 0 6.987-0.932 9.782 0.932 0.466-1.863 2.329-4.192 4.657-4.192M157.904 16.215l0.932 0.466c4.658 0.932 6.987 7.453 12.11 5.124 0 3.261 0.466 6.521-0.466 8.85-1.397 3.726-5.59 3.726-8.85 3.726-31.208-1.863-49.374 11.179-68.471 22.358-5.124 3.261-10.713 5.59-14.906 9.782-20.029 18.632-41.921 35.866-47.045 70.335l-4.192 38.195c-0.466 4.192-5.124 8.384-4.192 13.508l3.26 22.824c-3.261-3.261-5.124 0.932-4.192 2.795 0.466 1.397 2.329 6.055 5.124 1.863 3.726 6.987 7.453 20.495 12.576 26.55 15.837 18.632 36.332 35.4 53.101 52.169 4.192-0.932 7.453-0.932 8.384-3.727 1.397 2.795-1.397 5.59-3.726 6.056 7.453 4.658 15.837 8.85 27.016 9.781 14.44 0.932 27.948 3.261 40.524 6.522 6.521-1.863 13.042-2.795 20.029-3.261 2.329 0 3.726-3.726 6.521-4.658l0.466-4.658c2.795 4.192 2.329-1.397 0.466-4.192 3.261 2.795 4.192 5.124 5.589 6.987 0-1.397 3.726-6.521 3.727-0.466l0.931-6.055c1.397-0.932 1.863 5.124 3.261 0.931 1.397-4.192 4.192-0.932 6.987-2.329-0.932 1.863-0.466 5.59 2.794 3.261l3.727-3.261c2.329 5.59 6.055 3.261 7.918 2.329 20.495-13.042 40.99-28.413 60.553-43.784l-0.466 6.055 2.329-7.453c2.329 2.329 4.192 0.466 5.124-0.931 2.795-4.658 6.521-9.316 12.577-13.508-7.453 20.029-16.303 35.866-27.482 48.908l-4.658 5.59c0 3.261-0.932 7.453-4.658 7.918-1.863 0.466-5.59-0.932-8.384 1.863-1.397 1.863 3.261 5.59-0.466 2.795-3.261-2.329-6.521 0-10.248 0.932-2.795 0.932 1.863 3.726 2.795 5.589 0.932 1.863 1.863 3.726 1.398 6.056l-5.124-5.59c-6.055 3.261-9.782 9.316-14.906 13.974-2.329 1.863-1.397 5.124-1.397 7.918-3.261 0-6.987-0.932-8.85 0.932-1.397 1.863-0.932 4.658-0.932 7.453-4.658-0.466-5.124-7.453-9.315-6.056-4.192 0.932-8.85 1.397-12.577 3.727 2.795 5.59-4.658 2.329-3.726 3.26-6.987-4.192-13.042-7.453-20.495-4.658-15.837-5.124-35.4-2.795-49.84-0.931 0-2.329 0.466-4.658-0.466-5.124-0.932 2.329-3.726 1.397-3.26 1.397-8.85-6.055-17.7-9.782-27.016-14.905-8.384 0.932-16.303-3.261-18.632-5.59-6.521-6.055-13.974-2.795-20.029-4.192-13.042-3.261-17.7-16.769-19.098-26.084-0.932-4.658-4.658-6.521-6.055-6.056-6.055-19.563-15.371-37.263-22.824-55.429-1.863-4.658-1.397-9.316-1.397-14.44 2.329 0.932 4.658 0.466 4.192-2.794-2.329-15.371-7.918-27.016-13.974-38.195 3.261-15.837 3.726-34.469 11.179-48.443 6.521-12.576 18.632-19.098 27.016-29.811 2.795-3.726 2.795-8.85 5.59-12.11 9.316-9.316 18.632-19.098 28.879-27.482 4.658-3.726 10.247 0 17.234-1.397 2.329-8.384 11.645-15.837 20.495-13.508 3.726 0.932 11.179-8.85 13.508-9.782 3.726-1.397 1.863 3.726 1.863 6.987 8.85-6.987 20.961-10.713 32.14-14.906" fill="#ff5858" fill-rule="nonzero" stroke="none" stroke-width="1" stroke-linecap="butt" stroke-linejoin="miter" stroke-miterlimit="10" stroke-dasharray="" stroke-dashoffset="0" font-family="none" font-weight="none" font-size="none" text-anchor="none" style="mix-blend-mode: normal" data-fill-palette-color="tertiary"></path></g><g transform="matrix(1,0,0,1,64,130.47332571428572)"><svg viewBox="0 0 192 99.05334857142856" height="99.05334857142856" width="192"><g><svg viewBox="0 0 192 99.05334857142856" height="99.05334857142856" width="192"><g><svg viewBox="0 0 192 99.05334857142856" height="99.05334857142856" width="192"><g transform="matrix(1,0,0,1,0,59.869675102040816)"><svg viewBox="0 0 192 39.18367346938775" height="39.18367346938775" width="192"><g><svg viewBox="0 0 192 39.18367346938775" height="39.18367346938775" width="192"><g><svg viewBox="0 0 192 39.18367346938775" height="39.18367346938775" width="192"><g transform="matrix(1,0,0,1,0,0)"><svg width="192" viewBox="0.20000000298023224 -31 154.33999633789062 31.5" height="39.18367346938775" data-palette-color="#ff5858"><path d="M6.5 0L0.2-24.5 5.05-24.5 8.9-4.85 13.2-23.75 17.35-23.75 21.7-4.85 25.55-24.5 30.4-24.5 24.15 0 19.75 0 15.3-18.15 10.85 0 6.5 0ZM38.25 0.5Q35.45 0.5 33.65-1.5 31.85-3.5 31.85-6.6L31.85-6.6Q31.85-11.2 35.7-13.23 39.55-15.25 44.3-15.35L44.3-15.35Q44.3-18.55 43.35-19.8 42.4-21.05 40.15-21.05L40.15-21.05Q37.25-21.05 34.25-18.8L34.25-18.8 33.7-22.45Q36.85-25 41-25L41-25Q44.95-25 46.85-22.73 48.75-20.45 48.75-15.4L48.75-15.4 48.75-8.25Q48.75-5.4 49.15-4.23 49.55-3.05 50.9-3.05L50.9-3.05 51.45-3.05 50.9 0.5 49.95 0.5Q47.65 0.5 46.55-0.35 45.45-1.2 44.75-3.1L44.75-3.1Q43.6-1.45 41.9-0.48 40.2 0.5 38.25 0.5L38.25 0.5ZM39.6-3.05Q40.8-3.05 42.1-3.98 43.4-4.9 44.3-6.4L44.3-6.4 44.3-12.25Q40.45-12.05 38.45-10.78 36.45-9.5 36.45-6.85L36.45-6.85Q36.45-3.05 39.6-3.05L39.6-3.05ZM61.9 0.5Q59.05 0.5 57.67-1.2 56.3-2.9 56.3-5.35L56.3-5.35 56.3-21.05 52.9-21.05 53.3-24.5 56.3-24.5 56.3-30.55 60.65-31 60.65-24.5 65.95-24.5 65.95-21.05 60.65-21.05 60.65-7.1Q60.65-4.85 61.47-3.95 62.3-3.05 64.35-3.05L64.35-3.05 65.9-3.05 65.5 0.5 61.9 0.5ZM93.94-25Q102.04-25 102.04-14L102.04-14 102.04 0 97.69 0 97.69-13.45Q97.69-17.45 96.62-19.23 95.54-21 92.99-21L92.99-21Q90.54-21 89.24-19.2 87.94-17.4 87.94-14L87.94-14 87.94 0 83.59 0 83.59-13.45Q83.59-17.3 82.52-19.15 81.44-21 79.19-21L79.19-21Q77.54-21 76.14-20.1 74.74-19.2 73.79-17.6L73.79-17.6 73.79 0 69.44 0 69.44-24.5 73.04-24.5 73.39-21.4Q74.44-23.05 76.24-24.03 78.04-25 80.19-25L80.19-25Q82.44-25 84.07-23.93 85.69-22.85 86.64-20.85L86.64-20.85Q87.59-22.8 89.47-23.9 91.34-25 93.94-25L93.94-25ZM111.79 0.5Q108.99 0.5 107.19-1.5 105.39-3.5 105.39-6.6L105.39-6.6Q105.39-11.2 109.24-13.23 113.09-15.25 117.84-15.35L117.84-15.35Q117.84-18.55 116.89-19.8 115.94-21.05 113.69-21.05L113.69-21.05Q110.79-21.05 107.79-18.8L107.79-18.8 107.24-22.45Q110.39-25 114.54-25L114.54-25Q118.49-25 120.39-22.73 122.29-20.45 122.29-15.4L122.29-15.4 122.29-8.25Q122.29-5.4 122.69-4.23 123.09-3.05 124.44-3.05L124.44-3.05 124.99-3.05 124.44 0.5 123.49 0.5Q121.19 0.5 120.09-0.35 118.99-1.2 118.29-3.1L118.29-3.1Q117.14-1.45 115.44-0.48 113.74 0.5 111.79 0.5L111.79 0.5ZM113.14-3.05Q114.34-3.05 115.64-3.98 116.94-4.9 117.84-6.4L117.84-6.4 117.84-12.25Q113.99-12.05 111.99-10.78 109.99-9.5 109.99-6.85L109.99-6.85Q109.99-3.05 113.14-3.05L113.14-3.05ZM128.74 0L128.74-24.5 132.29-24.5 132.84-20.4Q134.49-22.8 135.96-23.9 137.44-25 139.09-25L139.09-25Q139.74-25 140.24-24.85L140.24-24.85 139.79-19.9Q139.14-20.05 138.29-20.05L138.29-20.05Q136.64-20.05 135.19-19.23 133.74-18.4 133.09-17.3L133.09-17.3 133.09 0 128.74 0ZM150.49 0.5Q147.64 0.5 146.26-1.2 144.89-2.9 144.89-5.35L144.89-5.35 144.89-21.05 141.49-21.05 141.89-24.5 144.89-24.5 144.89-30.55 149.24-31 149.24-24.5 154.54-24.5 154.54-21.05 149.24-21.05 149.24-7.1Q149.24-4.85 150.06-3.95 150.89-3.05 152.94-3.05L152.94-3.05 154.49-3.05 154.09 0.5 150.49 0.5Z" opacity="1" transform="matrix(1,0,0,1,0,0)" fill="#000000" class="undefined-text-0" data-fill-palette-color="primary" id="text-0"></path></svg></g></svg></g></svg></g></svg></g><g transform="matrix(1,0,0,1,57.514491506334835,0)"><svg viewBox="0 0 76.97101698733033 54.15183673469388" height="54.15183673469388" width="76.97101698733033"><g><svg xmlns="http://www.w3.org/2000/svg" xmlns:xlink="http://www.w3.org/1999/xlink" version="1.1" x="0" y="0" viewBox="12.5 23.99999237060547 74.51792907714844 52.426002502441406" enable-background="new 0 0 100 100" xml:space="preserve" height="54.15183673469388" width="76.97101698733033" class="icon-icon-0" data-fill-palette-color="accent" id="icon-0"><path fill="#000000" d="M14 27h10.618l4.843 5.535 4.888 28.585c0.115 0.671 0.347 1.298 0.663 1.868-2.926 0.773-5.093 3.436-5.093 6.602 0 3.77 3.066 6.836 6.836 6.836 3.769 0 6.835-3.066 6.835-6.836 0-1.317-0.381-2.545-1.029-3.59h22.912c-0.648 1.045-1.029 2.272-1.029 3.59 0 3.77 3.066 6.836 6.836 6.836 3.769 0 6.835-3.066 6.835-6.836 0-1.788-0.696-3.413-1.824-4.633 1.033-0.719 1.84-1.764 2.246-3.02l8.192-25.305c0.58-1.788 0.278-3.712-0.827-5.232-1.105-1.521-2.818-2.4-4.698-2.4H30.354l-4.375-5H14c-0.828 0-1.5 0.671-1.5 1.5S13.172 27 14 27zM36.755 73.426c-2.115 0-3.836-1.721-3.836-3.836s1.721-3.836 3.836-3.836c2.114 0 3.835 1.721 3.835 3.836S38.869 73.426 36.755 73.426zM71.279 73.426c-2.115 0-3.836-1.721-3.836-3.836 0-1.652 1.057-3.052 2.525-3.59h2.621c1.468 0.538 2.524 1.938 2.524 3.59C75.114 71.705 73.394 73.426 71.279 73.426zM81.203 32c0.909 0 1.737 0.429 2.271 1.165 0.535 0.735 0.681 1.66 0.4 2.525l-1.342 4.134L81.193 32H81.203zM79.921 32L81.7 42.394l-3.273 10.097L74.917 32H79.921zM73.644 32l3.95 23.066-1.911 5.902c-0.28 0.865-0.948 1.512-1.775 1.789L68.64 32H73.644zM67.366 32l5.274 30.891c-0.44-0.089-0.896-0.137-1.361-0.137-0.62 0-1.218 0.091-1.789 0.246h-1.835l-5.293-31H67.366zM61.089 32l5.293 31h-5.004l-5.293-31H61.089zM54.812 32l5.293 31h-5.004l-5.293-31H54.812zM48.535 32l5.292 31h-5.004l-5.292-31H48.535zM42.258 32l5.293 31h-5.005l-5.292-31H42.258zM35.98 32l5.293 31h-1.199c-1.372 0-2.537-1.033-2.769-2.387L32.413 32H35.98z" data-fill-palette-color="accent"></path></svg></g></svg></g><g></g></svg></g></svg></g></svg></g></svg></g><defs></defs></svg><rect width="320" height="360" fill="none" stroke="none" visibility="hidden"></rect></g></svg></g></svg>